<svg version="1.1" id="Layer_1" xmlns="http://www.w3.org/2000/svg" xmlns:xlink="http://www.w3.org/1999/xlink" x="0px" y="0px"
	 width="100%" viewBox="0 0 200 133" enable-background="new 0 0 200 133" xml:space="preserve">
<path fill="#0033A0" opacity="1.000000" stroke="none" 
	d="
M201.000000,45.000000 
	C201.000000,59.687561 201.000000,74.375122 200.530685,89.531281 
	C197.238586,89.916534 194.415802,89.761108 191.593002,89.760475 
	C129.883698,89.746574 68.174400,89.747726 6.465097,89.760368 
	C4.643382,89.760742 2.821699,89.916626 1.000000,90.000000 
	C1.000000,75.312439 1.000000,60.624878 1.460203,45.564659 
	C67.455505,45.207397 132.990616,45.223671 198.525711,45.228287 
	C199.350479,45.228344 200.175232,45.079395 201.000000,45.000000 
z"/>
<path fill="#D90012" opacity="1.000000" stroke="none" 
	d="
M201.000000,44.531342 
	C200.175232,45.079395 199.350479,45.228344 198.525711,45.228287 
	C132.990616,45.223671 67.455505,45.207397 1.460203,45.096001 
	C1.000000,30.355642 1.000000,15.711286 1.000000,1.033464 
	C67.542931,1.033464 134.085892,1.033464 201.000000,1.033464 
	C201.000000,15.352095 201.000000,29.707390 201.000000,44.531342 
z"/>
<path fill="#F2A800" opacity="1.000000" stroke="none" 
	d="
M1.000000,90.468658 
	C2.821699,89.916626 4.643382,89.760742 6.465097,89.760368 
	C68.174400,89.747726 129.883698,89.746574 191.593002,89.760475 
	C194.415802,89.761108 197.238586,89.916534 200.530685,89.999939 
	C201.000000,104.644356 201.000000,119.288719 201.000000,133.966537 
	C134.457062,133.966537 67.914108,133.966537 1.000000,133.966537 
	C1.000000,119.647903 1.000000,105.292610 1.000000,90.468658 
z"/>
</svg>